<svg xmlns="http://www.w3.org/2000/svg" width="388" height="64" fill="none"><path fill="#B6BBB4" d="M387.719 36.439h-25.308c.994 4.903 4.505 7.619 9.673 7.619 3.776 0 6.029-.729 9.672-3.246l3.843 5.565c-4.24 3.511-8.149 4.902-13.78 4.902-10.468 0-17.889-7.884-17.889-18.02 0-10.137 7.752-18.02 17.557-18.02 10.667 0 16.232 8.28 16.232 18.152zm-25.375-5.963h17.226c-.397-4.174-2.849-8.149-8.016-8.149-4.704 0-8.282 2.915-9.21 8.15M317.606 61.35l2.12-6.957c3.114 1.458 6.625 2.386 10.203 2.386 8.348 0 10.534-3.446 10.534-9.276v-2.65c-1.855 2.385-5.698 5.433-11.462 5.433-9.275 0-15.834-7.42-15.834-17.425 0-10.07 6.559-17.623 15.834-17.623 6.228 0 10.468 2.783 12.919 5.897l1.458-5.168h5.366v30.012c0 12.72-6.757 18.021-18.153 18.021-6.559 0-10.931-1.59-12.985-2.65m13.449-18.617c5.565 0 9.408-4.041 9.408-9.872s-3.843-10.07-9.408-10.07c-5.698 0-9.54 4.041-9.54 10.07 0 5.963 3.842 9.872 9.54 9.872M302.614 50.55l-1.457-5.233c-2.451 3.114-6.692 5.962-12.919 5.962-9.276 0-15.835-8.016-15.835-18.02 0-10.07 6.559-18.02 15.835-18.02a14.47 14.47 0 0 1 11.461 5.498V4.343h8.282v46.208zm-12.323-6.823c5.566 0 9.408-4.638 9.408-10.468 0-5.897-3.842-10.468-9.408-10.468-5.697 0-9.54 4.439-9.54 10.468 0 5.962 3.843 10.468 9.54 10.468M258.012 5.035c0-2.782 2.12-5.035 4.969-5.035a5.033 5.033 0 0 1 5.035 5.035 5.033 5.033 0 0 1-5.035 5.035c-2.849 0-4.969-2.252-4.969-5.035m9.209 45.516h-8.281V15.967h8.281zM242.115 50.55h-8.282V15.968h5.3l1.988 6.095c1.855-3.312 4.903-7.288 13.781-6.758l-1.127 8.812c-8.878-.596-11.66 4.041-11.66 9.607zM211.718 50.55h-19.611V4.175h17.955c7.553 0 16.629 3.114 16.629 12.72 0 5.5-3.511 8.348-6.426 9.872v.066c3.114 1.325 8.082 4.24 8.082 11.065 0 9.341-7.884 12.654-16.629 12.654m-11.13-39.022V23.52h9.672c5.102 0 7.885-2.32 7.885-5.83 0-4.44-2.916-6.162-8.481-6.162zm0 19.213v12.456h10.666c5.963 0 8.547-1.988 8.547-6.03 0-3.842-3.114-6.426-8.348-6.426zM186.552 36.439h-25.308c.994 4.903 4.505 7.619 9.673 7.619 3.776 0 6.029-.729 9.673-3.246l3.842 5.565c-4.24 3.511-8.149 4.902-13.78 4.902-10.468 0-17.888-7.884-17.888-18.02 0-10.137 7.751-18.02 17.556-18.02 10.667 0 16.232 8.28 16.232 18.152zm-25.374-5.963h17.225c-.397-4.174-2.849-8.149-8.016-8.149-4.704 0-8.282 2.915-9.209 8.15M142.211 50.55l-1.457-5.233c-2.452 3.114-6.692 5.962-12.92 5.962-9.275 0-15.834-8.016-15.834-18.02 0-10.07 6.559-18.02 15.834-18.02 5.764 0 9.607 3.113 11.462 5.498V4.343h8.282v46.208zm-12.323-6.823c5.565 0 9.408-4.638 9.408-10.468 0-5.897-3.843-10.468-9.408-10.468-5.698 0-9.54 4.439-9.54 10.468 0 5.962 3.842 10.468 9.54 10.468"/><path fill="#FBFF3A" fill-rule="evenodd" d="M78.578 52h12.089q0-.76-.025-1.511h-9.431l9.332-1.856a46 46 0 0 0-.344-3.168l-8.847 1.76 8.553-3.543a45 45 0 0 0-.739-3.292l-8.37 3.467 7.86-5.251a45 45 0 0 0-1.195-3.382l-7.953 5.314 7.166-7.167a45 45 0 0 0-1.717-3.412l-7.466 7.467 6.304-9.434a45 45 0 0 0-2.308-3.346L74.781 34.68l5.023-12.125a46 46 0 0 0-2.952-3.14l-5.124 12.37A33.1 33.1 0 0 1 78.578 52m-66.49 0q.001-1.374.11-2.72H.08Q0 50.63 0 52zm.908-7.744L1.13 41.896q.595-2.61 1.482-5.098l12.034 2.394a33 33 0 0 0-1.65 5.064m3.956-9.577L5.681 30.01a45 45 0 0 1 2.791-4.404l11.586 4.798a33.4 33.4 0 0 0-3.106 4.275m6.536-7.74-10.314-6.89a46 46 0 0 1 3.828-3.44l10.741 7.176a33.4 33.4 0 0 0-4.255 3.155m8.235-5.279-8.976-8.975a45 45 0 0 1 4.55-2.289l9.473 9.473a33 33 0 0 0-5.048 1.791m8.945-2.58-7.24-10.834a45 45 0 0 1 4.935-1.047l7.728 11.565a33.542 33.542 0 0 0-5.423.316m8.69-.083L44.256 6.679a46 46 0 0 1 4.97.152L54.72 20.1a33 33 0 0 0-5.363-1.103m7.7 1.885L54.41 7.576q2.406.49 4.712 1.226l2.869 14.422a33 33 0 0 0-4.934-2.342m6.308 3.185V10.395a45 45 0 0 1 4.231 2.106v14.81a33.4 33.4 0 0 0-4.231-3.244m4.835 3.803 2.654-13.342a46 46 0 0 1 3.615 2.74l-2.858 14.368a33.4 33.4 0 0 0-3.41-3.766" clip-rule="evenodd"/><path fill="#FBFF3A" fill-rule="evenodd" d="M66.489 52h12.089a34 34 0 0 0-.044-1.725l-6.014-.105 5.933-1.073a33 33 0 0 0-.643-4.235l-6.812 1.232 6.493-2.558a33 33 0 0 0-1.3-3.927l-7.43 2.927 6.807-4.378a33 33 0 0 0-1.88-3.522l-7.73 4.972 6.733-6.502a33 33 0 0 0-2.37-3.034l-7.58 7.32 6.144-8.855a33 33 0 0 0-2.757-2.477l-6.85 9.873 4.919-11.311a33 33 0 0 0-3.035-1.864l-4.85 11.155C62.414 37.624 66.49 44.336 66.49 52m-42.311 0h-12.09q0-.843.042-1.675l12.098.21q-.05.727-.05 1.465m34.53-30.445a33 33 0 0 0-3.191-1.211L52.932 32.25c1.088.419 2.133.925 3.125 1.51zm-6.159-2.014a33 33 0 0 0-3.215-.547l-.212 12.188q1.654.301 3.21.847zm-7.216-.786q-1.27 0-2.519.094l2.17 11.998a21.4 21.4 0 0 1 3.155.182L45.921 18.76a34 34 0 0 0-.588-.005m-6.308 13.046-6.694-10.407q-1.29.55-2.521 1.2l6.578 10.229q1.276-.597 2.637-1.022m-4.436 1.971-8.547-8.85q-1.074.766-2.082 1.614l8.43 8.729q1.05-.813 2.199-1.493m-14.022-3.95q-.827.922-1.584 1.906l9.953 6.904a21 21 0 0 1 1.685-1.835zm-4.325 6.075a33 33 0 0 0-1.054 2.068l11.094 4.824q.51-1.051 1.13-2.035zm-2.88 6.96a33 33 0 0 0-.526 2.102l11.816 2.565q.23-1.068.566-2.094zm30.272-11.945q-1.517.12-2.964.448l-4.465-11.336q1.411-.403 2.872-.68z" clip-rule="evenodd"/><path fill="#FBFF3A" fill-rule="evenodd" d="m64.801 52 1.688-.06q-.002-.506-.026-1.007l-10.255.359-.18-.03 10.229-2.408a21 21 0 0 0-.203-1.143L56.34 50l9.224-4.204a21 21 0 0 0-.424-1.246l-8.64 3.937 7.892-5.68a21 21 0 0 0-.688-1.305l-7.428 5.347 6.442-6.908q-.467-.672-.986-1.307l-6.106 6.549 4.895-7.91q-.627-.647-1.307-1.238l-4.68 7.562 3.253-8.7a21 21 0 0 0-1.639-1.083L53.012 42.2l1.509-9.262a21 21 0 0 0-1.958-.827L51.1 41.105l-.334-9.556a21 21 0 0 0-2.234-.464l.326 9.322-2.243-9.524a22 22 0 0 0-2.434-.007l2.195 9.32-4.158-9.123q-1.291.191-2.525.532l4.07 8.93-5.978-8.303q-1.28.49-2.474 1.133l5.833 8.103-7.568-7.057a21 21 0 0 0-2.262 1.747L38.653 43l-8.786-5.436a21 21 0 0 0-1.885 2.328l8.448 5.227-9.505-3.553a21 21 0 0 0-1.341 2.832l9.027 3.375-9.63-1.568a21 21 0 0 0-.647 3.212l8.986 1.463-9.127.319q-.015.398-.015.8h12.089A9.067 9.067 0 0 1 54.4 52z" clip-rule="evenodd"/></svg>